<svg width="612" height="208" viewBox="0 0 612 208" fill="none" xmlns="http://www.w3.org/2000/svg">
<g style="mix-blend-mode:darken" filter="url(#filter0_d)">
<path d="M184.114 63.409C214.803 106.968 228.343 194.087 37 194.087V199H584.645L532.917 183.279L606 155.768C586.701 152.002 543.832 144.371 526.748 143.978C505.393 143.486 565.662 99.7631 567.086 94.8504C568.51 89.9377 489.258 110.571 480.241 110.571C473.028 110.571 480.716 68.6492 485.461 47.6883C468.535 58.1687 434.019 79.9157 431.361 83.0599C428.039 86.99 422.344 34.9152 415.701 24.1072C410.385 15.4608 392.922 46.7057 384.854 63.409L355.906 2L348.313 63.409L304.178 8.87781L317.466 63.409L254.349 8.87781L184.114 63.409Z" stroke="black"/>
</g>
<ellipse cx="29.5" cy="169.5" rx="29.5" ry="30.5" fill="#2C2525"/>
<g filter="url(#filter1_d)">
<path d="M186 107L298 23" stroke="black"/>
</g>
<ellipse cx="234" cy="112" rx="9" ry="11" fill="#0E0E0E"/>
<ellipse cx="233.5" cy="112.5" rx="6.5" ry="7.5" fill="#FCF7F7"/>
<ellipse cx="230.5" cy="112" rx="2.5" ry="4" fill="#0D0D0D"/>
<path d="M198 88L277 29" stroke="#0D0D0D"/>
<ellipse cx="231.5" cy="111" rx="0.5" ry="1" fill="white"/>
<defs>
<filter id="filter0_d" x="32.5" y="0.224396" width="579.326" height="207.276" filterUnits="userSpaceOnUse" color-interpolation-filters="sRGB">
<feFlood flood-opacity="0" result="BackgroundImageFix"/>
<feColorMatrix in="SourceAlpha" type="matrix" values="0 0 0 0 0 0 0 0 0 0 0 0 0 0 0 0 0 0 127 0"/>
<feOffset dy="4"/>
<feGaussianBlur stdDeviation="2"/>
<feColorMatrix type="matrix" values="0 0 0 0 0 0 0 0 0 0 0 0 0 0 0 0 0 0 0.25 0"/>
<feBlend mode="normal" in2="BackgroundImageFix" result="effect1_dropShadow"/>
<feBlend mode="normal" in="SourceGraphic" in2="effect1_dropShadow" result="shape"/>
</filter>
<filter id="filter1_d" x="181.7" y="22.6" width="120.6" height="92.8" filterUnits="userSpaceOnUse" color-interpolation-filters="sRGB">
<feFlood flood-opacity="0" result="BackgroundImageFix"/>
<feColorMatrix in="SourceAlpha" type="matrix" values="0 0 0 0 0 0 0 0 0 0 0 0 0 0 0 0 0 0 127 0"/>
<feOffset dy="4"/>
<feGaussianBlur stdDeviation="2"/>
<feColorMatrix type="matrix" values="0 0 0 0 0 0 0 0 0 0 0 0 0 0 0 0 0 0 0.25 0"/>
<feBlend mode="normal" in2="BackgroundImageFix" result="effect1_dropShadow"/>
<feBlend mode="normal" in="SourceGraphic" in2="effect1_dropShadow" result="shape"/>
</filter>
</defs>
</svg>
